<svg version="1.2" xmlns="http://www.w3.org/2000/svg" viewBox="0 0 580 1019" width="580" height="1019">
	<title>Background</title>
	<style>
		.s0 { fill: #4f4f4f } 
	</style>
	<path id="Color Fill 1" class="s0" d="m580 920c0 0 0-732.6 0-746 0-13.4 1.3-27.2-17-52-18.3-24.8-36.8-48.6-42-66-5.2-17.4-4.3-27.6-4.3-27.6 0 0-11.9 4.1-76.9 6.3-9.2 0.3-91.2 1.8-104.7 2.1-13.3 0.3-103-0.6-120.5-0.8-143.4-2.2-149.6-7-149.6-7 0 0-0.7 16.7-3.4 23.5-3.6 8.9-11 26.4-30.2 52.1-19.2 25.6-28.6 38.7-29.4 52.4-0.8 13.7-1 54-1 54l1 709c0 0 41.5 8.6 149.5 8.4 236.6-0.3 372.1 0.1 428.5-8.4z"/>
</svg>